HIERARCHY
ROOT turn
{
	OFFSET 0.000000 0.000000 0.000000
	CHANNELS 6 Xposition Yposition Zposition Xrotation Yrotation Zrotation
	JOINT Spine_01
	{
		OFFSET -0.011116 138.184219 -44.820721
		CHANNELS 3 Xrotation Yrotation Zrotation
		JOINT Spine_02
		{
			OFFSET -0.655824 -4.174026 28.050629
			CHANNELS 3 Xrotation Yrotation Zrotation
			JOINT Spine_03
			{
				OFFSET -0.237046 -2.919235 35.457001
				CHANNELS 3 Xrotation Yrotation Zrotation
				JOINT Spine_04
				{
					OFFSET 0.889292 1.210632 39.259594
					CHANNELS 3 Xrotation Yrotation Zrotation
					JOINT Neck_Base
					{
						OFFSET 1.634120 3.585724 29.392281
						CHANNELS 3 Xrotation Yrotation Zrotation
						JOINT Neck_01
						{
							OFFSET -0.186269 17.878098 9.474930
							CHANNELS 3 Xrotation Yrotation Zrotation
							JOINT Neck_02
							{
								OFFSET -0.636423 15.285126 15.310822
								CHANNELS 3 Xrotation Yrotation Zrotation
								JOINT Head
								{
									OFFSET -0.797410 15.520340 15.523972
									CHANNELS 3 Xrotation Yrotation Zrotation
									JOINT L_Ear
									{
										OFFSET 7.924968 16.730682 8.946037
										CHANNELS 3 Xrotation Yrotation Zrotation
										End Site
										{
											OFFSET 5.445574 6.659241 -14.521828
										}
									}
									JOINT R_Ear
									{
										OFFSET -7.924048 16.730759 8.946800
										CHANNELS 3 Xrotation Yrotation Zrotation
										End Site
										{
											OFFSET 5.447374 -6.659195 14.521179
										}
									}
									JOINT Jaw
									{
										OFFSET 0.000531 -4.124405 8.573021
										CHANNELS 3 Xrotation Yrotation Zrotation
										End Site
										{
											OFFSET -0.000208 16.732620 -2.214172
										}
									}
								}
							}
						}
					}
					JOINT R_Scapula
					{
						OFFSET -6.319964 17.540894 8.039215
						CHANNELS 3 Xrotation Yrotation Zrotation
						JOINT R_Shoulder
						{
							OFFSET -2.784943 -35.524193 22.191368
							CHANNELS 3 Xrotation Yrotation Zrotation
							JOINT R_Front_UpperLeg
							{
								OFFSET -4.213358 -27.349007 -18.519814
								CHANNELS 3 Xrotation Yrotation Zrotation
								JOINT R_Front_LowerLeg
								{
									OFFSET 1.250661 -39.630783 4.010437
									CHANNELS 3 Xrotation Yrotation Zrotation
									JOINT R_Front_Ankle
									{
										OFFSET 0.910205 -30.625179 0.296043
										CHANNELS 3 Xrotation Yrotation Zrotation
										JOINT R_Front_Hoof
										{
											OFFSET 0.000359 -9.177296 4.105247
											CHANNELS 3 Xrotation Yrotation Zrotation
											End Site
											{
												OFFSET -0.000680 0.000391 -10.053650
											}
										}
									}
								}
							}
						}
					}
					JOINT L_Scapula
					{
						OFFSET 7.171810 17.540833 7.289146
						CHANNELS 3 Xrotation Yrotation Zrotation
						JOINT L_Shoulder
						{
							OFFSET 4.182635 -35.634430 21.790977
							CHANNELS 3 Xrotation Yrotation Zrotation
							JOINT L_Front_UpperLeg
							{
								OFFSET 0.914174 -26.908463 -19.590637
								CHANNELS 3 Xrotation Yrotation Zrotation
								JOINT L_Front_LowerLeg
								{
									OFFSET -1.171272 -39.640282 -3.937374
									CHANNELS 3 Xrotation Yrotation Zrotation
									JOINT L_Front_Ankle
									{
										OFFSET -0.900420 -30.476368 -3.031116
										CHANNELS 3 Xrotation Yrotation Zrotation
										JOINT L_Front_Hoof
										{
											OFFSET 0.004621 -9.222168 4.003235
											CHANNELS 3 Xrotation Yrotation Zrotation
											End Site
											{
												OFFSET 0.010524 -0.111704 10.052948
											}
										}
									}
								}
							}
						}
					}
				}
			}
		}
		JOINT L_Hip
		{
			OFFSET 14.887412 -7.729385 -12.131317
			CHANNELS 3 Xrotation Yrotation Zrotation
			JOINT L_Back_UpperLeg
			{
				OFFSET 0.000000 -34.478554 8.440948
				CHANNELS 3 Xrotation Yrotation Zrotation
				JOINT L_Back_LowerLeg
				{
					OFFSET -3.196042 -42.364529 -14.576771
					CHANNELS 3 Xrotation Yrotation Zrotation
					JOINT L_Back_Ankle
					{
						OFFSET 1.655677 -33.756073 12.931870
						CHANNELS 3 Xrotation Yrotation Zrotation
						JOINT L_Back_Hoof
						{
							OFFSET 0.582795 -11.035064 3.767307
							CHANNELS 3 Xrotation Yrotation Zrotation
							End Site
							{
								OFFSET 1.784864 0.000009 11.537727
							}
						}
					}
				}
			}
		}
		JOINT R_Hip
		{
			OFFSET -14.887403 -7.729263 -12.131310
			CHANNELS 3 Xrotation Yrotation Zrotation
			JOINT R_Back_UpperLeg
			{
				OFFSET 0.000003 -35.225868 4.378204
				CHANNELS 3 Xrotation Yrotation Zrotation
				JOINT R_Back_LowerLeg
				{
					OFFSET 3.960886 -39.350430 -21.290859
					CHANNELS 3 Xrotation Yrotation Zrotation
					JOINT R_Back_Ankle
					{
						OFFSET -0.902668 -36.023087 3.312645
						CHANNELS 3 Xrotation Yrotation Zrotation
						JOINT R_Back_Hoof
						{
							OFFSET -0.767580 -11.035026 3.734016
							CHANNELS 3 Xrotation Yrotation Zrotation
							End Site
							{
								OFFSET 2.350781 -0.000008 -11.435806
							}
						}
					}
				}
			}
		}
		JOINT Tail_01
		{
			OFFSET 0.000001 9.427826 -23.815647
			CHANNELS 3 Xrotation Yrotation Zrotation
			JOINT Tail_02
			{
				OFFSET 0.000002 -13.400024 -17.562370
				CHANNELS 3 Xrotation Yrotation Zrotation
				JOINT Tail_03
				{
					OFFSET -0.000001 -23.344002 -0.528130
					CHANNELS 3 Xrotation Yrotation Zrotation
					JOINT Tail_04
					{
						OFFSET -0.000001 -22.903725 3.851234
						CHANNELS 3 Xrotation Yrotation Zrotation
						JOINT Tail_05
						{
							OFFSET -0.000002 -22.818230 5.034645
							CHANNELS 3 Xrotation Yrotation Zrotation
							End Site
							{
								OFFSET -0.000001 -5.034756 -22.818192
							}
						}
					}
				}
			}
		}
	}
}
MOTION
Frames: 5
Frame Time: 0.033333
0.000000 0.000000 0.000000 0.000022 -0.000000 -0.000000 -0.000007 0.000000 0.000000 -0.000016 -0.000000 0.000001 0.000022 -0.000001 -0.000005 0.000002 -0.000000 0.000006 -0.000008 0.000001 -0.000005 -0.000003 -0.000000 -0.000001 0.000012 0.000002 -0.000001 -0.000018 -0.000000 0.029852 0.000013 -0.000015 -0.029852 0.000021 0.000010 -0.029850 -0.000015 -0.003423 -0.029850 -0.000040 0.000004 -0.000002 -0.000013 -0.000063 0.000003 -0.000012 0.000003 -0.000004 -0.000009 -0.000075 0.000005 0.000024 -0.000000 -0.000004 -0.000005 -0.000087 0.000041 -0.000034 0.000001 -0.000005 0.000011 0.000003 0.000003 0.000006 -0.000002 0.000004 -0.000009 0.000065 0.000006 -0.000019 0.000002 0.000008 0.000022 0.000049 -0.000032 -0.000017 0.000007 -0.000060 -0.000011 0.000007 0.000004 0.000028 -0.000004 0.000000 0.000022 0.000000 0.000003 -0.000011 0.000103 -0.000043 -0.000012 0.000014 -0.000109 0.000000 -0.000001 0.000001 -0.000006 -0.000001 0.000000 0.000012 -0.000005 -0.000004 0.000003 -0.000092 0.000035 -0.000026 0.000004 -0.000012 -0.000022 0.000000 -0.000000 0.000009 -0.000000 -0.000000 -0.000027 0.000000 0.000000 0.000026 0.000063 -0.000017 
0.000000 0.000000 0.000000 0.000022 -1.138887 0.000000 0.007942 1.230164 0.033686 -0.002918 -0.000846 0.011733 -0.002418 -0.106479 -0.058334 -0.000660 -0.105480 -0.005548 -0.004857 -0.139489 0.054007 -0.004014 -0.069886 0.003038 -0.001436 0.004616 0.011062 0.012708 0.115958 -0.018654 -0.006500 -0.003437 -0.031460 -0.006491 -0.003409 -0.031467 -0.006530 -0.003419 -0.029850 0.000290 -0.022764 0.053017 -0.000015 -0.000064 0.000004 -0.352050 0.054974 -0.142908 0.744566 0.021813 -0.015080 -0.396344 0.064687 0.123146 -0.000005 -0.000087 0.000041 -0.020867 -0.002150 0.001166 0.045063 0.003575 -0.002805 -0.016516 -0.120401 -0.083549 -0.000010 0.000065 0.000006 -0.012423 0.237227 0.101570 0.000019 0.000049 -0.000032 -0.000017 0.000007 -0.000062 -0.039314 -0.418198 -0.052887 0.004867 -0.000082 -0.000829 0.026189 0.327061 0.019631 -0.000011 0.000103 -0.000042 -0.000010 0.000014 -0.000111 0.025566 0.055161 -0.001628 -0.054266 0.000374 -0.010776 0.020760 -0.146804 -0.021486 0.000004 -0.000091 0.000035 -0.000014 0.059417 -0.020000 -0.005909 -0.008250 0.016206 0.000663 0.000797 0.011060 0.000265 0.001789 0.009213 0.000026 0.000063 -0.000017 
0.000000 0.000000 0.000000 0.000022 -2.304843 0.000001 0.029716 2.647050 0.129759 -0.013492 -0.001488 0.044576 -0.009299 -0.407627 -0.223713 0.003141 -0.397886 -0.021168 -0.012764 -0.516783 0.201997 -0.013270 -0.268797 0.010826 -0.006091 0.009037 0.041305 0.024125 0.420141 -0.154949 -0.006498 -0.003439 -0.030289 -0.006508 -0.003411 -0.030308 -0.006530 -0.003419 -0.029850 -0.004496 -0.082220 0.193118 -0.000013 -0.000064 0.000003 -1.086192 0.248238 -0.510538 2.247454 0.065383 -0.046388 -1.176630 0.238900 0.436212 -0.000003 -0.000087 0.000041 -0.072489 -0.007279 0.008400 0.156998 0.012439 -0.009790 -0.055540 -0.443592 -0.298835 -0.000010 0.000065 0.000006 -0.050374 0.900478 0.367953 0.000025 0.000049 -0.000032 -0.000017 0.000007 -0.000064 -0.154619 -1.587317 -0.207229 0.024207 -0.000405 -0.004139 0.095418 1.246038 0.076857 -0.000012 0.000103 -0.000043 -0.000010 0.000014 -0.000114 0.097466 0.220417 -0.010834 -0.208491 0.001492 -0.041401 0.081098 -0.564026 -0.079370 0.000003 -0.000092 0.000035 0.000239 0.215856 -0.072883 -0.024853 -0.029004 0.056948 0.000591 0.002869 0.039794 0.000236 0.006492 0.033414 0.000026 0.000063 -0.000017 
0.000000 0.000000 0.000000 0.000022 -3.496817 0.000001 0.061459 4.215384 0.280794 -0.033790 -0.018359 0.093712 -0.019963 -0.876093 -0.481836 0.014244 -0.840867 -0.045138 -0.010502 -1.069545 0.422859 -0.022843 -0.579902 0.021434 -0.014752 -0.001233 0.086377 0.026944 0.865058 -0.352212 -0.006493 -0.003441 -0.030078 -0.006513 -0.003415 -0.030115 -0.006531 -0.003419 -0.029850 -0.010013 -0.166448 0.391150 -0.000013 -0.000063 0.000003 -1.867137 0.615036 -1.006947 3.756575 0.108293 -0.078963 -1.923637 0.487368 0.859014 -0.000007 -0.000087 0.000041 -0.138631 -0.013862 0.017872 0.300282 0.023766 -0.018757 -0.101568 -0.912535 -0.593019 -0.000009 0.000065 0.000006 -0.116359 1.916955 0.742300 0.000025 0.000049 -0.000031 -0.000017 0.000007 -0.000066 -0.345140 -3.374784 -0.457701 0.065656 -0.001094 -0.011234 0.193177 2.659790 0.167571 -0.000013 0.000101 -0.000042 -0.000012 0.000014 -0.000116 0.209732 0.495038 -0.034457 -0.449266 0.003405 -0.089208 0.177284 -1.216584 -0.164010 0.000004 -0.000092 0.000035 0.005427 0.440572 -0.148878 -0.060941 -0.056241 0.110344 -0.004703 0.005727 0.079457 -0.002046 0.013102 0.067451 0.000026 0.000063 -0.000017 
0.000000 0.000000 0.000000 0.000022 -4.713751 0.000002 0.098536 5.899879 0.479737 -0.065317 -0.064725 0.154565 -0.033744 -1.484947 -0.818653 0.036414 -1.397355 -0.075569 0.016322 -1.734653 0.695786 -0.027565 -0.985196 0.033437 -0.027993 -0.040999 0.141626 0.005620 1.398436 -0.587657 -0.006488 -0.003442 -0.030002 -0.006510 -0.003414 -0.030065 -0.006531 -0.003419 -0.029850 -0.014564 -0.263217 0.618087 -0.000016 -0.000064 0.000003 -2.536992 1.176619 -1.533900 4.933096 0.141141 -0.105137 -2.454169 0.768047 1.316315 -0.000003 -0.000087 0.000040 -0.203616 -0.020308 0.027408 0.440988 0.034867 -0.027589 -0.138223 -1.469561 -0.913171 -0.000010 0.000065 0.000006 -0.213616 3.213103 1.168240 0.000025 0.000049 -0.000031 -0.000020 0.000007 -0.000069 -0.612736 -5.642441 -0.800805 0.137146 -0.002297 -0.023473 0.304623 4.466051 0.287004 -0.000014 0.000102 -0.000042 -0.000011 0.000014 -0.000119 0.357701 0.877836 -0.079642 -0.762524 0.006189 -0.151395 0.304868 -2.069090 -0.265888 0.000005 -0.000091 0.000034 0.032683 0.704328 -0.238285 -0.118937 -0.083862 0.164343 -0.020135 0.008867 0.123266 -0.008647 0.020599 0.106076 0.000026 0.000063 -0.000017 
